<mxfile host="app.diagrams.net" modified="2024-02-26T01:30:03.404Z" agent="Mozilla/5.0 (Windows NT 10.0; Win64; x64) AppleWebKit/537.36 (KHTML, like Gecko) Chrome/110.0.0.0 Safari/537.36" version="23.1.6" etag="X5zWDHIakmbq0WDRSZpO" type="github">
  <diagram name="PÃ¡gina-1" id="niynGtiezSXas7Ilhfhp">
    <mxGraphModel>
      <root>
        <mxCell id="0" />
        <mxCell id="1" parent="0" />
      </root>
    </mxGraphModel>
  </diagram>
</mxfile>
